<svg width="335.451" height="53.951" viewBox="0 0 335.451 53.951" xmlns="http://www.w3.org/2000/svg"><g id="svgGroup" stroke-linecap="round" fill-rule="evenodd" font-size="9pt" stroke="#000" stroke-width="0.25mm" fill="#000000" style="stroke:#000;stroke-width:0.25mm;fill:#000000"><path d="M 271.051 41.201 L 261.701 40.351 Q 260.151 40.151 259.126 38.726 A 6.391 6.391 0 0 1 258.511 37.69 Q 258.207 37.033 258.128 36.394 A 3.629 3.629 0 0 1 258.101 35.951 L 261.451 30.401 A 9.228 9.228 0 0 1 259.066 28.501 A 8.374 8.374 0 0 1 257.976 26.951 A 9.572 9.572 0 0 1 256.966 24.225 A 8.547 8.547 0 0 1 256.801 22.551 A 9.278 9.278 0 0 1 257.404 19.148 A 8.397 8.397 0 0 1 259.951 15.701 Q 263.101 13.101 267.201 13.101 A 12.571 12.571 0 0 1 271.397 13.784 A 11.335 11.335 0 0 1 274.151 15.201 Q 274.261 12.189 275.26 10.453 A 4.574 4.574 0 0 1 279.251 8.101 Q 280.389 8.364 280.531 9.813 A 4.495 4.495 0 0 1 280.551 10.251 Q 280.551 11.251 280.351 12.451 A 6.172 6.172 0 0 0 278.792 12.765 A 4.763 4.763 0 0 0 277.151 13.726 A 6.892 6.892 0 0 0 275.812 15.343 A 6.213 6.213 0 0 0 275.351 16.301 A 8.434 8.434 0 0 1 277.848 22.311 A 11.072 11.072 0 0 1 277.851 22.551 A 8.049 8.049 0 0 1 275.223 28.622 A 10.63 10.63 0 0 1 274.651 29.126 Q 271.451 31.751 267.201 31.751 A 14.523 14.523 0 0 1 265 31.592 A 11.212 11.212 0 0 1 263.151 31.151 L 261.451 35.601 L 273.901 36.851 Q 276.801 37.201 278.326 38.976 Q 279.851 40.751 279.851 43.601 Q 279.851 48.601 276.251 51.276 A 12.55 12.55 0 0 1 272.165 53.24 Q 270.451 53.729 268.417 53.882 A 25.59 25.59 0 0 1 266.501 53.951 Q 263.154 53.951 260.776 53.154 A 9.764 9.764 0 0 1 258.551 52.101 A 7.013 7.013 0 0 1 256.928 50.682 A 5.394 5.394 0 0 1 255.701 47.151 Q 255.701 45.051 257.051 43.426 Q 258.401 41.801 260.401 41.351 A 1.183 1.183 0 0 1 260.784 41.631 Q 260.912 41.768 261.023 41.956 A 2.724 2.724 0 0 1 261.151 42.201 Q 259.501 43.551 259.501 46.251 A 4.259 4.259 0 0 0 261.01 49.575 A 6.124 6.124 0 0 0 261.701 50.101 Q 263.626 51.37 266.546 51.529 A 15.764 15.764 0 0 0 267.401 51.551 A 16.26 16.26 0 0 0 269.932 51.365 Q 271.347 51.142 272.52 50.651 A 9.031 9.031 0 0 0 273.401 50.226 Q 275.801 48.901 275.801 46.501 A 11.332 11.332 0 0 0 275.726 45.147 Q 275.534 43.557 274.851 42.676 A 2.859 2.859 0 0 0 273.923 41.922 Q 273.061 41.46 271.669 41.27 A 12.92 12.92 0 0 0 271.051 41.201 Z M 19.751 43.901 L 28.551 47.601 A 15.802 15.802 0 0 0 31.59 48.577 A 12.811 12.811 0 0 0 34.201 48.851 A 7.964 7.964 0 0 0 38.058 47.835 A 10.174 10.174 0 0 0 39.001 47.251 A 3.152 3.152 0 0 1 39.494 47.564 Q 39.99 47.941 40.551 48.601 A 10.091 10.091 0 0 1 33.168 52.497 A 14.461 14.461 0 0 1 31.901 52.551 A 12.328 12.328 0 0 1 28.994 52.187 A 16.6 16.6 0 0 1 26.601 51.401 L 17.751 47.151 A 18.327 18.327 0 0 0 16.298 46.624 Q 15.565 46.395 14.921 46.277 A 7.076 7.076 0 0 0 13.651 46.151 Q 11.122 46.151 8.545 47.949 A 13.838 13.838 0 0 0 8.401 48.051 Q 7.451 47.551 6.851 46.651 Q 7.901 45.201 9.376 44.251 A 16.229 16.229 0 0 1 10.223 43.748 Q 11.859 42.832 15.151 41.301 A 19.097 19.097 0 0 1 8.99 38.929 A 16.84 16.84 0 0 1 3.951 34.151 Q 0.001 28.501 0.001 21.501 Q 0.001 15.751 2.526 10.851 Q 5.051 5.951 9.676 2.976 Q 14.301 0.001 20.001 0.001 A 23.618 23.618 0 0 1 24.925 0.495 A 19.198 19.198 0 0 1 28.801 1.751 Q 32.701 3.501 35.101 6.426 Q 37.501 9.351 38.776 12.926 Q 40.051 16.501 40.051 20.401 A 23.753 23.753 0 0 1 38.725 28.463 A 21.055 21.055 0 0 1 34.401 35.601 A 18.474 18.474 0 0 1 20.949 41.783 A 24.002 24.002 0 0 1 20.001 41.801 A 3.632 3.632 0 0 0 19.419 41.85 A 4.473 4.473 0 0 0 19.051 41.926 Q 18.587 42.042 18.317 42.158 A 2.109 2.109 0 0 0 18.276 42.176 A 25.652 25.652 0 0 1 18.12 42.246 Q 17.864 42.361 17.447 42.542 A 175.442 175.442 0 0 1 17.426 42.551 Q 16.851 42.801 16.701 42.901 A 11.027 11.027 0 0 1 17.67 43.145 Q 18.134 43.283 18.654 43.472 A 25.467 25.467 0 0 1 19.751 43.901 Z M 162.401 3.001 L 162.401 12.601 Q 161.628 12.73 161.002 12.748 A 6.937 6.937 0 0 1 160.801 12.751 Q 160.235 12.751 159.812 12.666 A 2.906 2.906 0 0 1 159.551 12.601 L 157.951 4.251 A 11.158 11.158 0 0 0 154.766 2.849 Q 152.59 2.251 149.801 2.251 A 11.959 11.959 0 0 0 146.118 2.804 A 10.724 10.724 0 0 0 144.126 3.676 Q 141.601 5.101 139.826 7.526 Q 138.051 9.951 137.101 13.226 A 24.337 24.337 0 0 0 136.184 18.829 A 27.928 27.928 0 0 0 136.151 20.201 A 29.542 29.542 0 0 0 136.494 24.792 A 24.427 24.427 0 0 0 137.076 27.501 A 21.18 21.18 0 0 0 138.278 30.807 A 16.8 16.8 0 0 0 139.701 33.301 A 12.839 12.839 0 0 0 142.624 36.346 A 11.931 11.931 0 0 0 143.826 37.126 A 10.666 10.666 0 0 0 148.694 38.489 A 12.751 12.751 0 0 0 149.251 38.501 Q 152.851 38.501 156.201 37.101 A 20.661 20.661 0 0 0 161.779 33.685 A 19.586 19.586 0 0 0 162.101 33.401 A 2.649 2.649 0 0 1 162.82 34.107 Q 163.165 34.595 163.401 35.301 Q 158.202 40.163 152.891 41.389 A 15.925 15.925 0 0 1 149.301 41.801 A 22.826 22.826 0 0 1 145.016 41.418 A 16.997 16.997 0 0 1 140.751 40.026 A 18.234 18.234 0 0 1 136.064 36.799 A 16.818 16.818 0 0 1 134.701 35.326 Q 132.301 32.401 131.126 28.676 Q 129.951 24.951 129.951 21.051 Q 129.951 17.101 131.301 13.326 Q 132.651 9.551 135.251 6.576 A 19.133 19.133 0 0 1 140.97 2.149 A 22.112 22.112 0 0 1 141.676 1.801 A 18.757 18.757 0 0 1 147.159 0.214 A 23.946 23.946 0 0 1 150.401 0.001 Q 156.851 0.001 162.401 3.001 Z M 68.501 14.101 L 68.501 33.701 Q 68.501 36.786 68.628 38.175 A 11.787 11.787 0 0 0 68.651 38.401 L 72.601 38.901 Q 72.718 39.526 72.652 40.334 A 8.683 8.683 0 0 1 72.601 40.801 Q 68.951 40.951 65.001 41.501 A 1.723 1.723 0 0 1 64.671 41.028 Q 64.573 40.827 64.509 40.584 A 2.964 2.964 0 0 1 64.501 40.551 L 64.251 36.101 A 23.704 23.704 0 0 1 62.39 38.234 Q 61.348 39.285 60.277 40.056 A 13.872 13.872 0 0 1 59.926 40.301 A 8.778 8.778 0 0 1 55.888 41.739 A 11.132 11.132 0 0 1 54.701 41.801 A 9.957 9.957 0 0 1 52.301 41.525 A 7.525 7.525 0 0 1 49.576 40.251 A 4.722 4.722 0 0 1 47.972 38.026 Q 47.678 37.221 47.567 36.221 A 11.58 11.58 0 0 1 47.501 34.951 L 47.501 23.851 Q 47.501 18.324 47.36 16.652 A 10.862 10.862 0 0 0 47.351 16.551 L 43.401 16.051 Q 43.204 15.313 43.395 14.188 A 8.286 8.286 0 0 1 43.401 14.151 Q 45.746 13.981 48.876 13.557 A 162.561 162.561 0 0 0 52.001 13.101 A 2.477 2.477 0 0 1 52.268 13.453 Q 52.4 13.665 52.459 13.878 A 1.32 1.32 0 0 1 52.501 14.101 Q 52.265 15.328 52.252 30.574 A 2148.006 2148.006 0 0 0 52.251 32.451 A 23.716 23.716 0 0 0 52.303 34.075 Q 52.413 35.675 52.759 36.696 A 4.36 4.36 0 0 0 53.076 37.426 A 2.706 2.706 0 0 0 54.745 38.719 Q 55.243 38.867 55.858 38.895 A 6.444 6.444 0 0 0 56.151 38.901 A 7.274 7.274 0 0 0 60.476 37.427 Q 62.197 36.186 63.751 33.901 L 63.751 23.801 A 345.032 345.032 0 0 0 63.746 21.825 Q 63.723 17.851 63.601 16.551 L 59.651 16.051 Q 59.454 15.313 59.645 14.188 A 8.286 8.286 0 0 1 59.651 14.151 Q 61.948 13.998 65.622 13.464 A 182.652 182.652 0 0 0 68.001 13.101 A 2.477 2.477 0 0 1 68.268 13.453 Q 68.4 13.665 68.459 13.878 A 1.32 1.32 0 0 1 68.501 14.101 Z M 306.401 14.101 L 306.401 33.701 Q 306.401 36.786 306.528 38.175 A 11.787 11.787 0 0 0 306.551 38.401 L 310.501 38.901 Q 310.618 39.526 310.552 40.334 A 8.683 8.683 0 0 1 310.501 40.801 Q 306.851 40.951 302.901 41.501 A 1.723 1.723 0 0 1 302.571 41.028 Q 302.473 40.827 302.409 40.584 A 2.964 2.964 0 0 1 302.401 40.551 L 302.151 36.101 A 23.704 23.704 0 0 1 300.29 38.234 Q 299.248 39.285 298.177 40.056 A 13.872 13.872 0 0 1 297.826 40.301 A 8.778 8.778 0 0 1 293.788 41.739 A 11.132 11.132 0 0 1 292.601 41.801 A 9.957 9.957 0 0 1 290.201 41.525 A 7.525 7.525 0 0 1 287.476 40.251 A 4.722 4.722 0 0 1 285.872 38.026 Q 285.578 37.221 285.467 36.221 A 11.58 11.58 0 0 1 285.401 34.951 L 285.401 23.851 Q 285.401 18.324 285.26 16.652 A 10.862 10.862 0 0 0 285.251 16.551 L 281.301 16.051 Q 281.104 15.313 281.295 14.188 A 8.286 8.286 0 0 1 281.301 14.151 Q 283.646 13.981 286.776 13.557 A 162.561 162.561 0 0 0 289.901 13.101 A 2.477 2.477 0 0 1 290.168 13.453 Q 290.3 13.665 290.359 13.878 A 1.32 1.32 0 0 1 290.401 14.101 Q 290.165 15.328 290.152 30.574 A 2148.006 2148.006 0 0 0 290.151 32.451 A 23.716 23.716 0 0 0 290.203 34.075 Q 290.313 35.675 290.659 36.696 A 4.36 4.36 0 0 0 290.976 37.426 A 2.706 2.706 0 0 0 292.645 38.719 Q 293.143 38.867 293.758 38.895 A 6.444 6.444 0 0 0 294.051 38.901 A 7.274 7.274 0 0 0 298.376 37.427 Q 300.097 36.186 301.651 33.901 L 301.651 23.801 A 345.032 345.032 0 0 0 301.646 21.825 Q 301.623 17.851 301.501 16.551 L 297.551 16.051 Q 297.354 15.313 297.545 14.188 A 8.286 8.286 0 0 1 297.551 14.151 Q 299.848 13.998 303.522 13.464 A 182.652 182.652 0 0 0 305.901 13.101 A 2.477 2.477 0 0 1 306.168 13.453 Q 306.3 13.665 306.359 13.878 A 1.32 1.32 0 0 1 306.401 14.101 Z M 182.751 25.701 L 182.751 23.151 A 29.561 29.561 0 0 0 182.682 21.057 Q 182.537 19.015 182.083 17.708 A 5.906 5.906 0 0 0 181.776 16.976 A 3.611 3.611 0 0 0 180.854 15.794 Q 179.948 15.051 178.551 15.051 A 5.832 5.832 0 0 0 176.891 15.276 A 4.542 4.542 0 0 0 174.851 16.526 A 5.151 5.151 0 0 0 173.995 17.785 Q 173.279 19.221 172.951 21.551 Q 171.72 21.82 170.992 21.883 A 4.649 4.649 0 0 1 170.601 21.901 A 4.084 4.084 0 0 1 169.787 21.827 Q 169.345 21.737 169.028 21.537 A 1.641 1.641 0 0 1 168.301 20.501 A 6.075 6.075 0 0 1 170.399 15.763 A 8.133 8.133 0 0 1 171.251 15.101 A 11.255 11.255 0 0 1 175.265 13.431 A 15.987 15.987 0 0 1 178.601 13.101 A 18.794 18.794 0 0 1 180.978 13.241 Q 183.58 13.573 185.044 14.702 A 4.918 4.918 0 0 1 185.476 15.076 Q 187.296 16.851 187.48 21.15 A 23.381 23.381 0 0 1 187.501 22.151 L 187.501 36.251 A 17.482 17.482 0 0 0 187.526 37.209 Q 187.551 37.661 187.601 38.055 A 8.925 8.925 0 0 0 187.651 38.401 L 191.601 38.901 Q 191.798 39.639 191.607 40.765 A 8.286 8.286 0 0 1 191.601 40.801 A 74.942 74.942 0 0 0 186.988 41.145 A 90.736 90.736 0 0 0 184.051 41.501 A 1.77 1.77 0 0 1 183.569 40.594 A 2.188 2.188 0 0 1 183.551 40.501 L 183.301 37.051 A 16.543 16.543 0 0 1 180.406 39.707 A 10.817 10.817 0 0 1 174.051 41.801 A 8.891 8.891 0 0 1 172.048 41.588 Q 170.291 41.182 169.126 40.001 A 6.006 6.006 0 0 1 167.524 36.935 A 8.732 8.732 0 0 1 167.351 35.151 A 7.961 7.961 0 0 1 168.04 31.785 Q 168.843 30.041 170.58 28.801 A 10.438 10.438 0 0 1 171.526 28.201 A 16.934 16.934 0 0 1 175.393 26.655 Q 177.276 26.141 179.517 25.902 A 38.001 38.001 0 0 1 182.751 25.701 Z M 92.401 21.551 A 26.038 26.038 0 0 0 92.735 21.553 Q 96.347 21.553 97.351 20.501 A 8.437 8.437 0 0 0 97.331 19.913 Q 97.222 18.357 96.527 17.145 A 6.341 6.341 0 0 0 94.451 15.001 Q 91.551 13.101 87.751 13.101 A 10.933 10.933 0 0 0 82.495 14.414 A 13.506 13.506 0 0 0 79.226 16.926 Q 76.781 19.436 75.941 23.206 A 19.736 19.736 0 0 0 75.501 27.501 A 25.902 25.902 0 0 0 75.618 30.014 Q 76.126 35.228 78.851 38.176 A 10.924 10.924 0 0 0 83.118 41.07 A 12.387 12.387 0 0 0 87.451 41.801 A 15.156 15.156 0 0 0 87.963 41.793 A 11.938 11.938 0 0 0 96.601 37.901 A 4.614 4.614 0 0 0 96.501 37.648 Q 96.112 36.748 95.451 36.351 Q 93.997 37.586 92.519 38.329 A 9.965 9.965 0 0 1 88.001 39.451 Q 84.401 39.451 82.601 36.376 A 11.138 11.138 0 0 1 81.522 33.763 Q 80.801 31.207 80.801 27.601 Q 80.801 22.051 82.851 18.651 A 11.445 11.445 0 0 1 83.243 18.044 Q 83.844 17.177 84.515 16.579 A 4.894 4.894 0 0 1 87.851 15.251 A 3.532 3.532 0 0 1 89.78 15.782 Q 91.251 16.712 91.96 19.271 A 16.257 16.257 0 0 1 92.401 21.551 Z M 334.401 26.701 L 318.701 26.701 A 37.835 37.835 0 0 0 318.679 27.688 Q 318.573 39.16 325.97 39.444 A 9.915 9.915 0 0 0 326.351 39.451 A 8.758 8.758 0 0 0 329.894 38.665 Q 331.087 38.141 332.297 37.267 A 18.037 18.037 0 0 0 333.401 36.401 Q 334.062 36.798 334.451 37.698 A 4.614 4.614 0 0 1 334.551 37.951 A 11.155 11.155 0 0 1 326.456 41.786 A 14.133 14.133 0 0 1 325.801 41.801 A 14.718 14.718 0 0 1 320.607 40.959 Q 314.155 38.534 313.645 29.119 A 30.845 30.845 0 0 1 313.601 27.451 Q 313.601 22.08 315.847 18.596 A 11.572 11.572 0 0 1 317.201 16.876 A 12.765 12.765 0 0 1 320.548 14.312 A 10.807 10.807 0 0 1 325.601 13.101 Q 330.851 13.101 333.151 16.751 A 13.884 13.884 0 0 1 334.83 20.766 Q 335.451 23.212 335.451 26.251 A 2.253 2.253 0 0 1 334.975 26.547 A 1.771 1.771 0 0 1 334.401 26.701 Z M 219.701 9.101 L 219.701 38.251 L 223.751 39.001 A 3.275 3.275 0 0 1 223.832 39.483 Q 223.894 40.132 223.754 40.982 A 8.968 8.968 0 0 1 223.751 41.001 Q 220.601 40.851 217.301 40.851 Q 215.54 40.851 212.665 40.91 A 547.087 547.087 0 0 0 210.801 40.951 Q 210.52 40.061 210.766 39.126 A 3.816 3.816 0 0 1 210.801 39.001 L 214.751 38.451 A 70.533 70.533 0 0 0 214.888 35.882 Q 214.935 34.565 214.947 33.097 A 123.243 123.243 0 0 0 214.951 32.101 L 214.951 3.451 L 210.851 2.951 Q 210.654 2.213 210.845 1.088 A 8.286 8.286 0 0 1 210.851 1.051 Q 213.196 0.881 216.326 0.457 A 162.561 162.561 0 0 0 219.451 0.001 A 2.477 2.477 0 0 1 219.718 0.353 Q 219.85 0.565 219.909 0.778 A 1.32 1.32 0 0 1 219.951 1.001 Q 219.737 2.114 219.706 7.253 A 308.565 308.565 0 0 0 219.701 9.101 Z M 108.851 9.101 L 108.851 38.251 L 112.901 39.001 A 3.275 3.275 0 0 1 112.982 39.483 Q 113.044 40.132 112.904 40.982 A 8.968 8.968 0 0 1 112.901 41.001 Q 109.751 40.851 106.501 40.851 Q 104.74 40.851 101.865 40.91 A 547.087 547.087 0 0 0 100.001 40.951 Q 99.72 40.061 99.966 39.126 A 3.816 3.816 0 0 1 100.001 39.001 L 103.951 38.451 A 70.533 70.533 0 0 0 104.088 35.882 Q 104.135 34.565 104.147 33.097 A 123.243 123.243 0 0 0 104.151 32.101 L 104.151 3.451 L 100.051 2.951 Q 99.854 2.213 100.045 1.088 A 8.286 8.286 0 0 1 100.051 1.051 A 72.333 72.333 0 0 0 102.573 0.814 Q 103.881 0.67 105.388 0.467 A 175.357 175.357 0 0 0 108.601 0.001 A 2.477 2.477 0 0 1 108.868 0.353 Q 109 0.565 109.059 0.778 A 1.32 1.32 0 0 1 109.101 1.001 Q 108.887 2.114 108.856 7.253 A 308.565 308.565 0 0 0 108.851 9.101 Z M 119.551 38.501 L 109.401 26.401 L 119.851 16.301 L 116.551 15.901 Q 116.398 15.289 116.479 14.471 A 7.195 7.195 0 0 1 116.551 13.951 A 77.13 77.13 0 0 0 119.812 14.122 A 62.573 62.573 0 0 0 121.701 14.151 Q 123.651 14.151 126.901 14.001 Q 127.201 14.901 126.901 15.901 L 122.951 16.601 L 114.101 24.901 L 125.001 37.951 L 128.901 38.951 A 3.275 3.275 0 0 1 128.982 39.433 Q 129.044 40.082 128.904 40.932 A 8.968 8.968 0 0 1 128.901 40.951 Q 125.751 40.801 122.601 40.801 Q 120.451 40.801 116.251 40.901 Q 115.951 39.901 116.251 38.951 L 119.551 38.501 Z M 201.551 8.101 L 201.551 15.251 L 208.601 15.251 Q 208.701 15.851 208.701 16.151 Q 208.701 16.601 208.601 17.201 L 201.551 18.251 L 201.551 32.001 A 32.247 32.247 0 0 0 201.593 33.715 Q 201.681 35.354 201.95 36.407 A 5.259 5.259 0 0 0 202.226 37.226 Q 202.901 38.751 204.351 38.751 A 4.921 4.921 0 0 0 205.144 38.677 Q 206.381 38.472 208.401 37.701 Q 208.84 38.097 209.048 39.109 A 6.805 6.805 0 0 1 209.101 39.401 A 147.141 147.141 0 0 1 208.396 39.821 Q 207.716 40.224 207.229 40.501 A 31.791 31.791 0 0 1 206.826 40.726 Q 206.224 41.057 205.379 41.326 A 13.254 13.254 0 0 1 204.876 41.476 A 9.169 9.169 0 0 1 202.603 41.799 A 10.285 10.285 0 0 1 202.401 41.801 A 5.257 5.257 0 0 1 200.164 41.335 A 5.19 5.19 0 0 1 198.326 39.876 A 6.007 6.007 0 0 1 197.321 38.021 Q 196.751 36.377 196.751 34.001 L 196.751 17.651 L 193.251 17.201 A 6.28 6.28 0 0 1 193.191 16.851 Q 193.167 16.685 193.158 16.54 A 2.879 2.879 0 0 1 193.151 16.351 A 4.454 4.454 0 0 1 193.161 16.073 Q 193.182 15.733 193.251 15.251 Q 194.651 15.001 195.676 14.376 A 5.092 5.092 0 0 0 197.121 13.039 A 6.168 6.168 0 0 0 197.401 12.626 A 20.64 20.64 0 0 0 197.88 11.818 Q 198.242 11.173 198.476 10.626 A 16.792 16.792 0 0 0 198.674 10.14 Q 198.89 9.589 199.153 8.832 A 64.893 64.893 0 0 0 199.401 8.101 A 2.672 2.672 0 0 1 199.825 8 Q 200.035 7.966 200.276 7.956 A 5.186 5.186 0 0 1 200.501 7.951 A 4.076 4.076 0 0 1 200.997 7.98 Q 201.26 8.012 201.487 8.081 A 2.423 2.423 0 0 1 201.551 8.101 Z M 19.951 39.051 A 13.452 13.452 0 0 0 24.107 38.432 A 11.395 11.395 0 0 0 27.926 36.326 Q 31.201 33.601 32.626 29.451 A 26.049 26.049 0 0 0 33.851 23.893 A 32.974 32.974 0 0 0 34.051 20.201 A 28.336 28.336 0 0 0 33.695 15.607 A 21.774 21.774 0 0 0 32.626 11.526 Q 31.201 7.701 27.951 5.226 A 11.97 11.97 0 0 0 22.504 2.947 A 16.069 16.069 0 0 0 19.951 2.751 A 14.884 14.884 0 0 0 15.542 3.369 A 11.263 11.263 0 0 0 9.551 7.751 Q 6.001 12.751 6.001 20.251 A 32.646 32.646 0 0 0 6.373 25.29 A 25.318 25.318 0 0 0 7.401 29.526 Q 8.801 33.651 12.051 36.351 Q 15.301 39.051 19.951 39.051 Z M 227.438 23.233 A 18.233 18.233 0 0 0 226.951 27.501 A 20.986 20.986 0 0 0 227.041 29.465 A 17.065 17.065 0 0 0 227.826 33.276 A 15.453 15.453 0 0 0 228.249 34.4 A 12.922 12.922 0 0 0 230.326 37.801 Q 231.951 39.701 234.276 40.751 A 11.373 11.373 0 0 0 236.613 41.509 A 14.188 14.188 0 0 0 239.551 41.801 A 14.14 14.14 0 0 0 240.287 41.782 A 12.013 12.013 0 0 0 244.701 40.726 Q 247.051 39.651 248.726 37.726 A 13.014 13.014 0 0 0 249.609 36.59 A 14.398 14.398 0 0 0 251.326 33.201 A 15.304 15.304 0 0 0 251.908 31.094 A 18.146 18.146 0 0 0 252.251 27.501 A 19.492 19.492 0 0 0 252.233 26.665 A 16.927 16.927 0 0 0 251.351 21.876 A 15.771 15.771 0 0 0 251.114 21.23 A 13.595 13.595 0 0 0 248.776 17.301 Q 247.101 15.351 244.751 14.226 A 11.092 11.092 0 0 0 242.997 13.563 A 12.524 12.524 0 0 0 239.551 13.101 A 13.925 13.925 0 0 0 238.137 13.171 A 11.313 11.313 0 0 0 234.326 14.226 Q 232.001 15.351 230.351 17.301 A 12.801 12.801 0 0 0 229.484 18.451 A 14.19 14.19 0 0 0 227.826 21.876 A 16.371 16.371 0 0 0 227.438 23.233 Z M 234.251 18.301 Q 232.101 21.351 232.101 27.501 Q 232.101 30.551 232.676 32.851 A 15.744 15.744 0 0 0 233.237 34.654 Q 233.673 35.795 234.251 36.676 A 7.859 7.859 0 0 0 235.265 37.936 A 6.046 6.046 0 0 0 236.601 38.951 Q 237.951 39.701 239.551 39.701 Q 241.101 39.701 242.501 38.951 A 6.215 6.215 0 0 0 244.272 37.513 A 7.928 7.928 0 0 0 244.901 36.676 A 10.429 10.429 0 0 0 245.751 35.076 Q 246.074 34.324 246.335 33.448 A 18.365 18.365 0 0 0 246.501 32.851 A 17.454 17.454 0 0 0 246.932 30.53 Q 247.101 29.121 247.101 27.501 Q 247.101 24.719 246.602 22.54 A 15.599 15.599 0 0 0 246.501 22.126 Q 245.901 19.801 244.876 18.276 Q 243.851 16.751 242.476 15.976 Q 241.101 15.201 239.551 15.201 A 5.778 5.778 0 0 0 235.56 16.803 A 9.225 9.225 0 0 0 234.251 18.301 Z M 261.301 22.551 A 8.616 8.616 0 0 0 261.679 25.151 A 7.263 7.263 0 0 0 262.926 27.501 A 5.171 5.171 0 0 0 266.673 29.527 A 6.678 6.678 0 0 0 267.251 29.551 A 5.626 5.626 0 0 0 269.727 29.015 A 5.646 5.646 0 0 0 271.601 27.526 A 7.22 7.22 0 0 0 273.251 23.538 A 9.474 9.474 0 0 0 273.301 22.551 A 10.079 10.079 0 0 0 273.014 20.085 A 7.528 7.528 0 0 0 271.626 17.226 A 5.571 5.571 0 0 0 269.78 15.675 Q 268.689 15.119 267.338 15.102 A 6.8 6.8 0 0 0 267.251 15.101 A 5.105 5.105 0 0 0 263.383 16.807 A 7.022 7.022 0 0 0 263.001 17.251 Q 261.301 19.401 261.301 22.551 Z M 182.751 35.301 L 182.751 27.501 A 31.536 31.536 0 0 0 179.801 27.803 Q 176.854 28.256 174.979 29.257 A 8.996 8.996 0 0 0 174.851 29.326 Q 172.441 30.662 172.143 33.361 A 7.189 7.189 0 0 0 172.101 34.151 Q 172.101 36.33 172.768 37.437 A 2.645 2.645 0 0 0 173.051 37.826 A 2.916 2.916 0 0 0 174.3 38.641 Q 175.042 38.901 176.051 38.901 A 5.784 5.784 0 0 0 177.477 38.711 Q 178.096 38.554 178.762 38.265 A 11.297 11.297 0 0 0 179.376 37.976 A 10.723 10.723 0 0 0 181.743 36.326 A 13.334 13.334 0 0 0 182.751 35.301 Z M 318.851 24.701 L 325.051 24.701 Q 328.751 24.701 330.351 24.251 A 22.011 22.011 0 0 0 330.203 21.619 Q 330.045 20.305 329.716 19.206 A 10.051 10.051 0 0 0 329.101 17.626 A 5.834 5.834 0 0 0 328.311 16.406 A 3.551 3.551 0 0 0 325.501 15.101 A 4.686 4.686 0 0 0 322.26 16.407 Q 321.633 16.978 321.077 17.8 A 8.394 8.394 0 0 0 321.076 17.801 A 12.071 12.071 0 0 0 319.607 20.876 Q 319.155 22.278 318.939 23.927 A 21.803 21.803 0 0 0 318.851 24.701 Z" vector-effect="non-scaling-stroke"/></g></svg>